<?xml version="1.0" encoding="UTF-8"?>
<svg width="20px" height="20px" viewBox="0 0 20 20" version="1.1" xmlns="http://www.w3.org/2000/svg" xmlns:xlink="http://www.w3.org/1999/xlink">
    <!-- Generator: Sketch 56.2 (81672) - https://sketch.com -->
    <title>履约信息3</title>
    <desc>Created with Sketch.</desc>
    <g id="履约信息3" stroke="none" stroke-width="1" fill="none" fill-rule="evenodd">
        <g id="编组" fill-rule="nonzero">
            <path d="M17.3109808,6.24671259 C17.1506802,6.02629931 16.9753515,5.55291171 16.9503045,5.27739512 L16.9027153,4.73638071 C16.8426025,4.0676268 16.3642056,3.35879775 15.7705925,3.06574828 L15.2921955,2.82780213 C15.04924,2.70757671 14.6785449,2.3719474 14.5307679,2.14151534 L14.2427278,1.68816531 C13.8845562,1.12460864 13.1381567,0.723857232 12.4794216,0.743894803 L11.948426,0.761427677 C11.6779188,0.768941766 11.1970171,0.648716343 10.9615756,0.513462743 L10.4982068,0.247964934 C9.92463135,-0.0826549781 9.0805487,-0.0826549781 8.50697324,0.247964934 L8.04360443,0.513462743 C7.80816297,0.648716343 7.32726128,0.768941766 7.05675408,0.761427677 L6.52575847,0.743894803 C5.86702334,0.723857232 5.12062384,1.12210394 4.76245227,1.68816531 L4.47441219,2.14402004 C4.32913981,2.3744521 3.95594006,2.7100814 3.71298451,2.83030683 L3.23458752,3.06825297 C2.64347919,3.36130244 2.1625775,4.0701315 2.10246479,4.73888541 L2.05487556,5.27989981 C2.0298286,5.55291171 1.85449986,6.02629931 1.69419929,6.24921728 L1.37860756,6.68503444 C0.987874934,7.22604884 0.885182385,8.08015028 1.13815671,8.69881027 L1.34103711,9.19974953 C1.44372966,9.45272386 1.50384237,9.95616781 1.46376723,10.2291797 L1.38361695,10.7651847 C1.2834291,11.4289292 1.58399265,12.2329368 2.08994131,12.6637445 L2.49820681,13.0093926 C2.7060966,13.1847214 2.98662259,13.6030056 3.07679165,13.8609894 L3.2496157,14.3744521 C3.27967205,14.4671259 3.31974719,14.5572949 3.36733642,14.6449593 L1.47128132,17.9536631 L4.21642847,17.9536631 L5.53640342,20 L7.20202647,17.0920476 C7.61530136,17.2498435 8.08367957,17.2874139 8.48192628,17.1747026 L8.99538902,17.0294302 C9.25587744,16.9542893 9.75180731,16.9542893 10.0122957,17.0294302 L10.5257585,17.1747026 C10.9039676,17.2824045 11.3472989,17.2523482 11.7455456,17.1145899 L13.3986451,20 L14.7186201,17.9536631 L17.4637672,17.9536631 L15.6052826,14.7100814 C15.6679,14.6023795 15.7204986,14.4896681 15.7605737,14.3744521 L15.9333978,13.8609894 C16.0210622,13.6005009 16.3040928,13.1847214 16.5119826,13.0093926 L16.9202481,12.6637445 C17.4261968,12.2354415 17.7267603,11.4289292 17.6265725,10.7651847 L17.5464222,10.2291797 C17.5063471,9.95867251 17.5664598,9.45522855 17.6691523,9.19974953 L17.8720327,8.69881027 C18.1199977,8.07764559 18.0173051,7.22354415 17.6265725,6.68252974 L17.3109808,6.24671259 Z" id="形状" fill="#F8D125"></path>
            <path d="M2.56583361,8.71133375 C2.56583361,4.80901691 5.67165703,1.64558547 9.50133768,1.64558547 C13.3310183,1.64558547 16.4368417,4.80901691 16.4368417,8.71133375 C16.4368417,12.6136506 13.3310183,15.777082 9.50133768,15.777082 C5.67165703,15.777082 2.56583361,12.6136506 2.56583361,8.71133375 Z" id="路径" fill="#FFFFFF"></path>
            <path d="M9.44486233,2.37111863 C6.04119991,2.37111863 3.28194434,5.18262341 3.28194434,8.65097532 C3.28194434,12.1193272 6.04119991,14.930832 9.44486233,14.930832 C12.8485247,14.930832 15.6077803,12.1193272 15.6077803,8.65097532 C15.6077803,5.18262341 12.8485247,2.37111863 9.44486233,2.37111863 Z" id="形状" fill="#F8D125"></path>
            <path d="M9.424,10.576 L9.424,11.632 L6,11.632 L6,6.08 L7.216,6.08 L7.216,10.576 L9.424,10.576 Z M11.408,11.712 C10.9173309,11.712 10.4986684,11.6773337 10.152,11.608 L10.152,10.616 C10.360001,10.6586669 10.5573324,10.6919999 10.744,10.716 C10.9306676,10.7400001 11.1306656,10.752 11.344,10.752 C11.5093342,10.752 11.6653326,10.7413334 11.812,10.72 C11.9586674,10.6986666 12.0853328,10.658667 12.192,10.6 C12.2986672,10.541333 12.3839997,10.4626672 12.448,10.364 C12.5120003,10.2653328 12.544,10.1360008 12.544,9.976 C12.544,9.67733184 12.4240012,9.47600052 12.184,9.372 C11.9439988,9.26799948 11.6106688,9.216 11.184,9.216 L10.76,9.216 L10.76,8.328 L11.176,8.328 C11.5653353,8.328 11.8746655,8.27600052 12.104,8.172 C12.3333345,8.06799948 12.448,7.87466808 12.448,7.592 C12.448,7.34133208 12.3573342,7.17066712 12.176,7.08 C11.9946658,6.98933288 11.7493349,6.944 11.44,6.944 C11.2693325,6.944 11.0853343,6.95866652 10.888,6.988 C10.6906657,7.01733348 10.5146674,7.05599976 10.36,7.104 L10.36,6.168 C10.4880006,6.12533312 10.6666655,6.08666684 10.896,6.052 C11.1253345,6.01733316 11.3546655,6 11.584,6 C11.8933349,6 12.1733321,6.02533308 12.424,6.076 C12.6746679,6.12666692 12.8879991,6.2119994 13.064,6.332 C13.2400009,6.4520006 13.3746662,6.60933236 13.468,6.804 C13.5613338,6.99866764 13.608,7.23733192 13.608,7.52 C13.608,7.8133348 13.537334,8.059999 13.396,8.26 C13.254666,8.460001 13.0293349,8.61066616 12.72,8.712 L12.72,8.76 C13.061335,8.82933368 13.3186658,8.97999884 13.492,9.212 C13.6653342,9.44400116 13.752,9.73066496 13.752,10.072 C13.752,10.6373362 13.556002,11.0519987 13.164,11.316 C12.771998,11.5800013 12.1866706,11.712 11.408,11.712 Z" id="L3" fill="#FF2500"></path>
        </g>
    </g>
</svg>