<?xml version="1.0" encoding="UTF-8"?>
<svg width="20px" height="20px" viewBox="0 0 20 20" version="1.1" xmlns="http://www.w3.org/2000/svg" xmlns:xlink="http://www.w3.org/1999/xlink">
    <!-- Generator: Sketch 56.2 (81672) - https://sketch.com -->
    <title>实名认证</title>
    <desc>Created with Sketch.</desc>
    <g id="实名认证" stroke="none" stroke-width="1" fill="none" fill-rule="evenodd">
        <g id="编组-4">
            <g id="编组-3" transform="translate(1.000000, 1.000000)">
                <g id="编组">
                    <circle id="椭圆形" fill="#16B66D" cx="9" cy="9" r="9"></circle>
                    <path d="M3.6001521,14.8705606 C3.5959217,13.8378126 3.6799471,12.8065918 3.85131135,11.7881515 C4.07466017,10.6030252 5.08919007,9.73071916 6.29440591,9.68754688 C8.13390178,9.55628514 9.98041361,9.55628514 11.8199095,9.68754688 C13.2201408,9.83983438 14.3084428,10.9762913 14.4,12.3818007 L14.4,14.8705606 L3.6001521,14.8705606 L3.6001521,14.8705606 Z M9.19415365,2.72358576 L9.19415365,2.7007531 C10.0496111,2.68205891 10.8758848,3.01207839 11.4830783,3.61496554 C12.0902718,4.2178527 12.4261638,5.04175662 12.4135586,5.89732542 C12.4358912,6.7560861 12.0961699,7.58467464 11.4774196,8.18059136 C10.181358,9.35394234 8.20694934,9.35394234 6.91088771,8.18059136 C6.26664197,7.59631339 5.89921335,6.76705717 5.89921335,5.89732542 C5.89921335,5.02759367 6.26664197,4.19833744 6.91088771,3.61405948 C7.53004951,3.03609477 8.34717877,2.71741435 9.19415365,2.72358576 Z" id="形状" fill="#FFFFFF"></path>
                </g>
                <g id="编组-2" transform="translate(11.000000, 10.000000)" fill-rule="nonzero">
                    <path d="M4,0 C1.82857145,0 0,1.77142858 0,4 C0,6.17142855 1.77142858,8 4,8 C6.17142855,8 8,6.22857142 8,4 C8,1.77142858 6.22857142,0 4,0 L4,0 Z" id="形状备份" fill="#ED483E"></path>
                    <path d="M4,5.82857141 C3.90319824,5.94285712 3.82844587,5.99999998 3.65714286,5.99999998 C3.48583984,5.99999998 3.37142858,5.94285712 3.31428572,5.88571428 L1.4857143,4.34285714 C1.3714286,4.22857144 1.15251234,4.0026809 1.42857144,3.65714286 C1.70463053,3.31160482 1.9962972,3.51617432 2.11428572,3.59999999 L3.54285716,4.79999999 L5.65714284,2.00000002 C5.82857141,1.77142858 6.07600911,1.72387695 6.34285713,1.88571428 C6.67771403,2.11826752 6.6285714,2.45714286 6.45714286,2.62857143 L4,5.82857141 Z" id="路径" fill="#FFFFFF"></path>
                </g>
            </g>
        </g>
    </g>
</svg>