<?xml version="1.0" encoding="UTF-8"?>
<svg width="20px" height="20px" viewBox="0 0 20 20" version="1.1" xmlns="http://www.w3.org/2000/svg" xmlns:xlink="http://www.w3.org/1999/xlink">
    <!-- Generator: Sketch 56.2 (81672) - https://sketch.com -->
    <title>质量3</title>
    <desc>Created with Sketch.</desc>
    <g id="质量3" stroke="none" stroke-width="1" fill="none" fill-rule="evenodd">
        <g id="编组" fill-rule="nonzero">
            <path d="M9.99993291,17.0627326 L4.91910137,19.8786869 C4.44871654,20.1393887 3.85789786,19.9660503 3.59947091,19.4915248 C3.49477294,19.2992776 3.45701174,19.0771624 3.49222749,18.8607082 L4.47341615,12.8298165 L0.278314654,8.51892704 C-0.0976700267,8.1325649 -0.091990505,7.51187761 0.291000221,7.13258319 C0.436770913,6.98821935 0.623930344,6.8938666 0.825889253,6.86292938 L6.58435772,5.98081449 L9.12121868,0.561920318 C9.35041256,0.0723478139 9.92962467,-0.137095208 10.4149251,0.0941162358 C10.618562,0.191134836 10.7824751,0.356490871 10.8786471,0.561920318 L13.4155081,5.98081449 L19.1739766,6.86292938 C19.7045934,6.94421229 20.0694256,7.44404162 19.9888519,7.97932945 C19.9581847,8.18306618 19.8646553,8.37187315 19.7215512,8.51892704 L15.5264497,12.8298165 L16.5076383,18.8607082 C16.5945617,19.394984 16.2356902,19.8991858 15.7060765,19.9868743 C15.4915111,20.0224001 15.2713341,19.9843065 15.0807644,19.8786869 L9.99993291,17.0627326 Z" id="Star备份" fill="#E77734"></path>
            <path d="M8.984,13.08 L8.984,14 L5.656,14 L5.656,8.448 L6.704,8.448 L6.704,13.08 L8.984,13.08 Z M11.276,14.08 C11.0306654,14.08 10.8053344,14.0720001 10.6,14.056 C10.3946656,14.0399999 10.1986676,14.0133335 10.012,13.976 L10.012,13.104 C10.2253344,13.1520002 10.427999,13.1866666 10.62,13.208 C10.812001,13.2293334 11.0146656,13.24 11.228,13.24 C11.4093342,13.24 11.5773326,13.2266668 11.732,13.2 C11.8866674,13.1733332 12.0226661,13.1280003 12.14,13.064 C12.2573339,12.9999997 12.349333,12.9133339 12.416,12.804 C12.482667,12.6946661 12.516,12.5546675 12.516,12.384 C12.516,12.0533317 12.3906679,11.8280006 12.14,11.708 C11.8893321,11.5879994 11.534669,11.528 11.076,11.528 L10.644,11.528 L10.644,10.752 L11.068,10.752 C11.4893354,10.752 11.8186655,10.6880006 12.056,10.56 C12.2933345,10.4319994 12.412,10.2213348 12.412,9.928 C12.412,9.65066528 12.3186676,9.4586672 12.132,9.352 C11.9453324,9.2453328 11.681335,9.192 11.34,9.192 C11.1746658,9.192 10.9906677,9.20666652 10.788,9.236 C10.5853323,9.26533348 10.4040008,9.30399976 10.244,9.352 L10.244,8.528 C10.377334,8.48533312 10.5546656,8.44800016 10.776,8.416 C10.9973344,8.38399984 11.2226655,8.368 11.452,8.368 C11.7560015,8.368 12.0279988,8.3946664 12.268,8.448 C12.5080012,8.5013336 12.7119992,8.58666608 12.88,8.704 C13.0480008,8.82133392 13.1773329,8.97599904 13.268,9.168 C13.3586671,9.36000096 13.404,9.59199864 13.404,9.864 C13.404,10.1840016 13.3266674,10.4426657 13.172,10.64 C13.0173326,10.8373343 12.7853349,10.9866662 12.476,11.088 L12.476,11.136 C12.8386685,11.2053337 13.1079991,11.3533322 13.284,11.58 C13.4600009,11.8066678 13.548,12.0959982 13.548,12.448 C13.548,13.5360054 12.7906742,14.08 11.276,14.08 Z" id="L3" fill="#FFFFFF"></path>
        </g>
    </g>
</svg>