<svg 
 xmlns="http://www.w3.org/2000/svg"
 xmlns:xlink="http://www.w3.org/1999/xlink"
 width="47px" height="47px">
<path fill-rule="evenodd"  stroke="rgb(0, 104, 183)" stroke-width="2px" stroke-linecap="butt" stroke-linejoin="miter" fill="none"
 d="M22.547,1.719 C34.430,1.719 44.062,11.352 44.062,23.234 L44.062,23.297 C44.062,35.180 34.430,44.812 22.547,44.812 C10.664,44.812 1.031,35.180 1.031,23.297 L1.031,23.234 C1.031,11.352 10.664,1.719 22.547,1.719 Z"/>
<path fill-rule="evenodd"  fill="rgb(0, 104, 183)"
 d="M27.906,22.714 C28.014,22.977 28.014,23.273 27.906,23.536 C27.851,23.668 27.772,23.787 27.673,23.887 L23.370,28.189 C23.160,28.399 22.885,28.504 22.610,28.504 C22.335,28.504 22.060,28.399 21.849,28.189 C21.429,27.769 21.429,27.088 21.849,26.668 L24.316,24.201 L18.307,24.201 C17.713,24.201 17.231,23.719 17.231,23.125 C17.231,22.531 17.713,22.050 18.307,22.050 L24.316,22.050 L21.849,19.583 C21.429,19.163 21.429,18.482 21.849,18.062 C22.270,17.642 22.950,17.642 23.370,18.062 L27.673,22.364 C27.772,22.463 27.851,22.582 27.906,22.714 Z"/>
</svg>