<?xml version="1.0" standalone="no"?><!DOCTYPE svg PUBLIC "-//W3C//DTD SVG 1.1//EN" "http://www.w3.org/Graphics/SVG/1.1/DTD/svg11.dtd"><svg t="1611563923774" class="icon" viewBox="0 0 1024 1024" version="1.1" xmlns="http://www.w3.org/2000/svg" p-id="12655" xmlns:xlink="http://www.w3.org/1999/xlink" width="26" height="26"><defs><style type="text/css"></style></defs><path d="M732.4 914.5h-434c-68.9 0-125-56.1-125-125v-564c0-68.9 56.1-125 125-125h434.1c68.9 0 125 56.1 125 125v564.1c-0.1 68.8-56.2 124.9-125.1 124.9z m-434-764c-41.3 0-75 33.6-75 75v564.1c0 41.3 33.6 75 75 75h434.1c41.3 0 75-33.6 75-75V225.5c0-41.3-33.6-75-75-75H298.4z" p-id="12656" fill="#ffffff"></path><path d="M730.7 336.6H312.8c-11 0-20-9-20-20s9-20 20-20h417.9c11 0 20 9 20 20s-8.9 20-20 20zM632.2 416.8H312.8c-11 0-20-9-20-20s9-20 20-20h319.3c11 0 20 9 20 20s-8.9 20-19.9 20zM533.6 497.1H312.8c-11 0-20-9-20-20s9-20 20-20h220.8c11 0 20 9 20 20s-8.9 20-20 20zM487.3 784.8c-10.3 0-20.4-3.9-28-11.3-10-9.6-14.5-23.5-11.8-37.1l8.5-43.7c1.5-7.7 5.1-14.7 10.5-20.4l191-199.8c7.5-7.9 17.6-12.3 28.5-12.6 10.9-0.2 21.2 3.8 29 11.3l34.9 33.3c7.9 7.5 12.3 17.6 12.6 28.5s-3.8 21.2-11.3 29l-191 199.8c-5.4 5.7-12.3 9.6-19.9 11.4L497 783.6c-3.3 0.9-6.5 1.2-9.7 1.2z m199.5-284.9c-0.3 0-0.4 0.1-0.5 0.2l-191 199.8c-0.1 0.1-0.1 0.2-0.2 0.3l-8.5 43.7c0 0.2-0.1 0.4 0.2 0.6 0.3 0.3 0.4 0.2 0.6 0.2l43.3-10.4c0.1 0 0.2-0.1 0.3-0.2l191-199.8c0.3-0.3 0.2-0.7 0-0.9l-34.9-33.3c0.1 0 0-0.2-0.3-0.2z" p-id="12657" fill="#ffffff"></path></svg>