<?xml version="1.0" standalone="no"?><!DOCTYPE svg PUBLIC "-//W3C//DTD SVG 1.1//EN" "http://www.w3.org/Graphics/SVG/1.1/DTD/svg11.dtd"><svg t="1611563545627" class="icon" viewBox="0 0 1024 1024" version="1.1" xmlns="http://www.w3.org/2000/svg" p-id="6933" xmlns:xlink="http://www.w3.org/1999/xlink" width="26" height="26"><defs><style type="text/css"></style></defs><path d="M835.8 734.4V112c0.5-7.1-4.7-13.2-11.8-13.8H202.9c-7.1-0.2-13 5.4-13.2 12.4v803.6c-0.6 7.1 4.7 13.2 11.8 13.8H651.3c3.5 0.1 6.9-1.4 9.2-4.1L831.9 744c1.3-1.4 1.3-2.8 2.6-4.1v-1.4c1-1.2 1.5-2.6 1.3-4.1zM216.1 125.8h593.3v594.7H651.2c-7.1-0.2-13 5.4-13.2 12.4v167.4H216l0.1-774.5zM664.4 881V748.2H791l-63.3 66.4-63.3 66.4zM321.6 291.8c3.5 0.1 6.9-1.4 9.2-4.1l79.1-83-18.5-19.4-69.9 73.3-30.3-31.8-18.5 19.4 39.5 41.5c2.4 2.7 5.8 4.2 9.4 4.1zM453.4 195h131.8v27.7H453.4V195z m0 69.2h290.1v27.7H453.4v-27.7zM321.6 471.6c3.5 0.1 6.9-1.4 9.2-4.1l79.1-83-18.5-19.4-69.9 73.3-30.3-31.8-18.4 19.4 39.5 41.5c2.3 2.7 5.7 4.2 9.3 4.1z m131.8-96.8h131.8v27.7H453.4v-27.7z m0 69.2h290.1v27.7H453.4V444zM321.6 651.4c3.5 0.1 6.9-1.4 9.2-4.1l79.1-83-18.5-19.4-69.9 73.3-30.3-31.8-18.5 19.4 39.5 41.5c2.4 2.7 5.8 4.2 9.4 4.1z m131.8-96.8h131.8v27.7H453.4v-27.7z m0 69.2h290.1v27.7H453.4v-27.7zM282 734.4h145v27.7H282v-27.7z m0 69.1h263.7v27.7H282v-27.7z" p-id="6934" fill="#ffffff"></path></svg>