<?xml version="1.0" standalone="no"?><!DOCTYPE svg PUBLIC "-//W3C//DTD SVG 1.1//EN" "http://www.w3.org/Graphics/SVG/1.1/DTD/svg11.dtd"><svg t="1611393386072" class="icon" viewBox="0 0 1024 1024" version="1.1" xmlns="http://www.w3.org/2000/svg" p-id="3252" width="26" height="26" xmlns:xlink="http://www.w3.org/1999/xlink"><defs><style type="text/css"></style></defs><path d="M512.1 235C335.3 235 192 343.2 192 476.7c0 62 30.9 118.5 81.7 161.3 16.9 14.3 36.1 27 57 37.9l1.1-47.7 0.4-18.7c-46.4-33.1-75.1-78.8-75.1-129.3 0-100.9 114.5-182.7 255.8-182.7s255.8 81.8 255.8 182.7S654.3 663 513 663c-30.3 0-59.3-3.8-86.3-10.7l-30.4 17.9-34.1 20.1c24.7 9.9 51.4 17.5 79.5 22.2 22.6 3.8 46.2 5.9 70.4 5.9 176.8 0 320.1-108.2 320.1-241.8S688.9 235 512.1 235z" fill="#1afa29" p-id="3253"></path><path d="M453.4 707.4l-11.7 5.2L274 786.3l-0.3-148.3-0.1-47.7 58.3 37.9-1.2 47.7-0.7 33.5 32.3-19 34-20.1z" fill="#1afa29" p-id="3254"></path><path d="M385.1 480.2m-32 0a32 32 0 1 0 64 0 32 32 0 1 0-64 0Z" fill="#1afa29" p-id="3255"></path><path d="M512 480.2m-32 0a32 32 0 1 0 64 0 32 32 0 1 0-64 0Z" fill="#1afa29" p-id="3256"></path><path d="M641.1 480.2m-32 0a32 32 0 1 0 64 0 32 32 0 1 0-64 0Z" fill="#1afa29" p-id="3257"></path></svg>