<?xml version="1.0" standalone="no"?><!DOCTYPE svg PUBLIC "-//W3C//DTD SVG 1.1//EN" "http://www.w3.org/Graphics/SVG/1.1/DTD/svg11.dtd"><svg t="1611563773086" class="icon" viewBox="0 0 1024 1024" version="1.1" xmlns="http://www.w3.org/2000/svg" p-id="11421" xmlns:xlink="http://www.w3.org/1999/xlink" width="26" height="26"><defs><style type="text/css"></style></defs><path d="M1024 668.032l-198.976-30.4L736 448l-89.024 189.632L448 668.032l144 147.584L558.016 1024l177.984-98.368L913.984 1024l-33.984-208.384L1024 668.032zM816.832 825.92l12.8 78.336-62.656-34.624L736 852.48l-30.976 17.088-62.656 34.624 12.8-78.336 5.184-31.872-22.528-23.104-57.024-58.432 75.904-11.584 33.792-5.184 14.528-30.912L736 598.656l31.04 66.176 14.528 30.912 33.728 5.184 75.904 11.584-57.024 58.432-22.528 23.104L816.832 825.92zM128 256l704 0 0 245.888 36.416 77.632L896 583.68 896 256 896 192 896 0 64 0l0 192 0 64 0 704 439.616 0 10.432-64L128 896 128 256zM128 64l704 0 0 128L128 192 128 64z" p-id="11422" fill="#ffffff"></path></svg>